<svg xmlns="http://www.w3.org/2000/svg" width="464.924" height="478.174" viewBox="0 0 464.924 478.174">
  <g id="dislike_red" transform="translate(-6.625 0)">
    <path id="Tracé_2" data-name="Tracé 2" d="M457.525,153.074a70.561,70.561,0,0,0,4.2-20c.7-14.1-2.8-33.9-22.7-51.9a61.115,61.115,0,0,0-6.8-38.3c-10.7-19.2-31.6-32.2-62.2-38.7-20.5-4.4-47.4-5.3-80-2.8-65.7-1.3-129.7,6.8-133.3,7.3l-23.5,2.8a41.514,41.514,0,0,0-24-7.6h-61a41.632,41.632,0,0,0-41.6,41.6v162.5a41.632,41.632,0,0,0,41.6,41.6h61a41.266,41.266,0,0,0,19.8-5,107.424,107.424,0,0,0,19.6,29.4,10.7,10.7,0,0,0,1.6,1.4c31.4,24.1,68.4,110.9,81.5,146.3-1.3,11-2.6,34.8,8.4,47.7a24.964,24.964,0,0,0,19.3,8.8c7.7,0,34.3-1.8,50.9-24.7,15.7-21.8,16.6-54.4,2.6-97-11.8-35.8-12.9-51.7-12.5-58.1,5.4,1.2,10.7,2.3,15.8,3.2h.1a313.822,313.822,0,0,0,49.2,6.3c37.4,1.8,64.5-4.7,80.3-19.2,21.8-19.9,19.2-45.3,12.7-61.5,5.6-7.3,12.4-19.2,13-34.4C471.925,178.974,467.325,165.674,457.525,153.074Zm-348.3,69.6h-61a14.617,14.617,0,0,1-14.6-14.6V45.574a14.617,14.617,0,0,1,14.6-14.6h61a14.617,14.617,0,0,1,14.6,14.6v162.5A14.553,14.553,0,0,1,109.225,222.674Zm321.7,9.7a40.061,40.061,0,0,1,4.7,13.1c1.5,9.3-1.1,17-8.1,23.4-19.1,17.4-74.1,13.4-104.8,6.6-.4-.1-.8-.2-1.3-.3-5.5-1-11.4-2.2-17.4-3.5-6.4-2.3-15.2-2-21.8,3.9-13.3,11.8-11.8,38.6,4.9,89.5,11,33.4,11.4,58.6,1.2,72.7-8.6,11.9-22.8,13.4-28.2,13.5-2.4-4-3.1-17.7-1.3-29a15.329,15.329,0,0,0-.6-6.7c-1.9-5.1-45.8-125.3-90.7-160.9-11.7-12.7-16.8-27.6-18.6-34.3a42.3,42.3,0,0,0,1.9-12.4V45.574a42.369,42.369,0,0,0-.9-8.8l10.1-1.2h.1c.6-.1,65.7-8.5,130-7.1h1.4c30.3-2.4,54.8-1.7,72.9,2.2,22.4,4.8,37.2,13.2,44,25.1,7.1,12.3,3.2,25,2.9,26.2a13.191,13.191,0,0,0,4.6,15.3c29.6,22.2,16,48.1,14.2,51.3a13.178,13.178,0,0,0,1.8,16.3c8.6,9,12.8,18,12.5,26.8-.4,13.1-10.5,22.9-11.2,23.5A13.173,13.173,0,0,0,430.925,232.374Z" fill="#f40909"/>
  </g>
</svg>
