<svg xmlns="http://www.w3.org/2000/svg" width="464.851" height="478.2" viewBox="0 0 464.851 478.2">
  <g id="like_blue" transform="translate(-6.675)">
    <path id="Tracé_3" data-name="Tracé 3" d="M457.575,325.1c9.8-12.5,14.5-25.9,13.9-39.7-.6-15.2-7.4-27.1-13-34.4,6.5-16.2,9-41.7-12.7-61.5-15.9-14.5-42.9-21-80.3-19.2a313.826,313.826,0,0,0-49.2,6.3h-.1c-5,.9-10.3,2-15.7,3.2-.4-6.4.7-22.3,12.5-58.1,14-42.6,13.2-75.2-2.6-97-16.6-22.9-43.1-24.7-50.9-24.7a25.114,25.114,0,0,0-19.3,8.8c-11.1,12.9-9.8,36.7-8.4,47.7-13.2,35.4-50.2,122.2-81.5,146.3a10.7,10.7,0,0,0-1.6,1.4,107.425,107.425,0,0,0-19.6,29.4,41.266,41.266,0,0,0-19.8-5h-61a41.632,41.632,0,0,0-41.6,41.6V432.7a41.632,41.632,0,0,0,41.6,41.6h61a41.514,41.514,0,0,0,24-7.6l23.5,2.8c3.6.5,67.6,8.6,133.3,7.3,11.9.9,23.1,1.4,33.5,1.4,17.9,0,33.5-1.4,46.5-4.2,30.6-6.5,51.5-19.5,62.1-38.6a61.207,61.207,0,0,0,6.8-38.3c19.9-18,23.4-37.9,22.7-51.9A67.55,67.55,0,0,0,457.575,325.1ZM48.275,447.3a14.617,14.617,0,0,1-14.6-14.6V270.1a14.617,14.617,0,0,1,14.6-14.6h61a14.617,14.617,0,0,1,14.6,14.6V432.6a14.617,14.617,0,0,1-14.6,14.6h-61Zm383.7-133.9a13.439,13.439,0,0,0-1.8,16.3,41.606,41.606,0,0,1,4.6,16.7c.7,13.1-5.6,24.7-18.8,34.6a13.626,13.626,0,0,0-4.6,15.4c0,.1,4.3,13.3-2.7,25.8-6.7,12-21.6,20.6-44.2,25.4-18.1,3.9-42.7,4.6-72.9,2.2h-1.4c-64.3,1.4-129.3-7-130-7.1h-.1l-10.1-1.2a42.368,42.368,0,0,0,.9-8.8V270.1a42.3,42.3,0,0,0-1.9-12.4c1.8-6.7,6.8-21.6,18.6-34.3,44.9-35.6,88.8-155.7,90.7-160.9a12.661,12.661,0,0,0,.6-6.7c-1.7-11.2-1.1-24.9,1.3-29,5.3.1,19.6,1.6,28.2,13.5,10.2,14.1,9.8,39.3-1.2,72.7-16.8,50.9-18.2,77.7-4.9,89.5,6.6,5.9,15.4,6.2,21.8,3.9,6.1-1.4,11.9-2.6,17.4-3.5.4-.1.9-.2,1.3-.3,30.7-6.7,85.7-10.8,104.8,6.6,16.2,14.8,4.7,34.4,3.4,36.5a13.372,13.372,0,0,0,2.4,17.4c.1.1,10.6,10,11.1,23.3C444.875,295.3,440.675,304.4,431.975,313.4Z" fill="#0076ff"/>
  </g>
</svg>
